<svg id="Layer_1" data-name="Layer 1" xmlns="http://www.w3.org/2000/svg" viewBox="0 0 7680 4320"><defs><style>.cls-1{fill:#2a60b7;}.cls-2{fill:#fff;}</style></defs><path class="cls-1" d="M1765.39,3353.08a240.31,240.31,0,0,1-120.24-32.22L1252.56,3094.2a240.46,240.46,0,0,1-120.25-208.26V2773l-97.87,56.49a240.5,240.5,0,0,1-240.46,0L401.39,2602.78a240.45,240.45,0,0,1-120.24-208.26V1941.19a240.48,240.48,0,0,1,120.22-208.25L794,1506.22a240.51,240.51,0,0,1,209.76-15,819,819,0,0,1,138.68-83.09,240.49,240.49,0,0,1,118.88-182.42L1654,999.12a240.53,240.53,0,0,1,240.46,0L2287,1225.79a240.5,240.5,0,0,1,120.24,208.27v453.33a240.48,240.48,0,0,1-98.08,193.79,817.17,817.17,0,0,1-2.57,162.28,240.53,240.53,0,0,1,91.89,189.11l0,453.38a240.46,240.46,0,0,1-120.24,208.25l-392.59,226.66A240.33,240.33,0,0,1,1765.39,3353.08Z"/><path class="cls-1" d="M2422.27,3031.16c-132.82,0-240.48-107.67-240.48-240.48V1587.75c0-132.82,107.66-240.49,240.48-240.49H2943c140.39,0,267.11,25.12,376.62,74.64,120.79,54.69,216.28,135.22,283.91,239.39,67.94,104.72,102.36,226.81,102.36,363,0,134.67-34.25,256.2-101.81,361.23-68,105.65-164.1,186.67-285.74,240.82C3209.25,2674.86,3083,2699.5,2943,2699.5h-1.83v91.18c0,132.81-107.67,240.48-240.49,240.48Z"/><path class="cls-1" d="M4082.33,3044.91c-136.36,0-262.21-29.83-374-88.66C3592,2895.12,3499.34,2808.33,3433,2698.33c-66.24-109.78-99.84-234.26-99.84-369.92s33.6-260.15,99.88-370,158.88-196.64,275.25-257.86c111.92-58.83,237.74-88.65,374-88.65,136.54,0,262.29,29.94,373.76,89,115.48,61.21,207.57,147.84,273.77,257.52,66.31,109.94,99.9,234.4,99.9,370s-33.59,260.06-99.85,369.93-158.39,196.46-273.82,257.6C4344.71,3015,4218.94,3044.91,4082.33,3044.91Z"/><rect class="cls-1" x="4527.51" y="1275.09" width="749.05" height="1756.07" rx="240.48"/><path class="cls-1" d="M5725.17,3044.91c-136.36,0-262.2-29.83-374-88.66-116.31-61.13-209-147.92-275.27-257.92-66.24-109.77-99.85-234.25-99.85-369.92s33.61-260.15,99.88-370,158.88-196.64,275.25-257.86c111.92-58.83,237.74-88.65,374-88.65,136.52,0,262.27,29.93,373.75,89,115.53,61.24,207.62,147.87,273.8,257.54,66.28,109.92,99.88,234.38,99.88,370s-33.6,260.06-99.85,369.93S6214.4,2894.77,6099,2955.93C5987.54,3015,5861.77,3044.91,5725.17,3044.91Z"/><path class="cls-1" d="M6721.88,3044.91a1142.28,1142.28,0,0,1-285.19-36c-100-25.78-181-59.57-247.42-103.29a240.46,240.46,0,0,1-85.92-302.16L6184,2429.85c-42.5-61.31-80.63-151.68-80.63-278.44,0-109.6,34.06-213.14,98.5-299.42,60.93-81.64,146.14-144.19,253.21-185.88,92.4-36,198.93-54.2,316.67-54.2a1146.41,1146.41,0,0,1,247,27.15c90.72,20.1,166.44,48.66,231.56,87.33a240.49,240.49,0,0,1,95,308.8l-69.31,147.93c1.49,1.54,3,3.09,4.43,4.66,54.11,57.62,118.52,160.33,118.52,322.78,0,109.71-35.07,213.3-101.42,299.56-62.05,80.68-148.45,142.12-256.78,182.62C6948,3027.36,6840.76,3044.91,6721.88,3044.91Z"/><path class="cls-2" d="M1372.8,2885.94V2432.61l392.62-226.72,112.27,64.82a403.56,403.56,0,0,0,6.35-220.08l-109.89,63.48-392.59-226.66,0-126.51a403.85,403.85,0,0,0-186.91,115.41l112.21,64.78,0,453.42L914.22,2621.18,521.63,2394.52V1941.19l392.62-226.72,126.2,72.86A574.08,574.08,0,0,1,1381.53,1581V1434l392.65-226.63,392.6,226.66v453.33l-127,73.32a573,573,0,0,1-7.93,399l126.2,72.86,0,453.39L1765.39,3112.6Zm392.63,24.5,217.48-125.59,0-251.19-217.53-125.58-217.56,125.6,0,251.17ZM914.27,2419l217.48-125.59,0-251.19L914.27,1916.66,696.7,2042.27l0,251.16Zm859.86-507.1,217.58-125.61,0-251.16-217.53-125.6-217.48,125.59-.05,251.2Z"/><path class="cls-2" d="M3220.5,1641q117.69,53.3,181.29,151.23t63.59,232q0,132.36-63.59,231.13T3220.5,2406.6Q3102.77,2459,2943,2459H2700.65v331.67H2422.27V1587.75H2943Q3102.78,1587.75,3220.5,1641Zm-102.25,537q65.28-54.12,65.3-153.8,0-101.38-65.3-155.52t-190.75-54.13H2700.65v417.58H2927.5Q3052.92,2232.17,3118.25,2178Z"/><path class="cls-2" d="M3820.25,2743.42q-116-61-181.29-169.27t-65.3-245.74q0-137.46,65.3-245.74t181.29-169.27q116-61,262.08-61t261.2,61q115.13,61,180.45,169.27t65.3,245.74q0,137.51-65.3,245.74t-180.45,169.27q-115.14,61-261.2,61T3820.25,2743.42Zm431.35-228.56q66.12-69.6,66.16-186.45T4251.6,2142q-66.19-69.6-169.27-69.6T3912.2,2142q-67,69.59-67,186.45t67,186.45q67,69.6,170.13,69.6T4251.6,2514.86Z"/><path class="cls-2" d="M4768,1515.57h268.08V2790.68H4768Z"/><path class="cls-2" d="M5463.1,2743.42q-116-61-181.29-169.27t-65.3-245.74q0-137.46,65.3-245.74T5463.1,1913.4q116-61,262.07-61t261.21,61q115.09,61,180.43,169.27t65.3,245.74q0,137.51-65.3,245.74t-180.43,169.27q-115.16,61-261.21,61T5463.1,2743.42Zm431.33-228.56q66.15-69.6,66.17-186.45T5894.43,2142q-66.17-69.6-169.26-69.6T5555,2142q-67,69.59-67,186.45t67,186.45q67,69.6,170.13,69.6T5894.43,2514.86Z"/><path class="cls-2" d="M6496.76,2776.07q-110-28.35-175.3-71.32l89.37-192.46q61.88,39.54,149.51,64.44t171.85,24.92q170.13,0,170.12-84.21,0-39.51-46.4-56.71t-142.63-29.22Q6599.88,2414.36,6526,2392t-128-79q-54.15-56.7-54.14-161.53,0-87.64,50.7-155.52t147.78-105.69q97.08-37.79,229.42-37.81a900.55,900.55,0,0,1,195.05,21.49q97.07,21.49,160.68,59.28l-89.37,190.75q-122-68.72-266.36-68.73-85.95,0-128.88,24.05t-43,61.86q0,43,46.4,60.15T6794,2233.89q113.43,18.95,185.6,40.38t125.45,78.2q53.25,56.7,53.28,158.09,0,86-51.56,153t-150.37,104q-98.82,36.93-234.56,36.95A897.55,897.55,0,0,1,6496.76,2776.07Z"/></svg>